<svg xmlns="http://www.w3.org/2000/svg" viewBox="0 0 400 300" style="background:#1a1a2e">
  <defs>
    <!-- Gradient for pipes -->
    <linearGradient id="flowGrad" x1="0%" y1="0%" x2="100%" y2="0%">
      <stop offset="0%" style="stop-color:#ff6b6b"/>
      <stop offset="100%" style="stop-color:#ee5a5a"/>
    </linearGradient>
    <linearGradient id="returnGrad" x1="0%" y1="0%" x2="100%" y2="0%">
      <stop offset="0%" style="stop-color:#4dabf7"/>
      <stop offset="100%" style="stop-color:#339af0"/>
    </linearGradient>
    <!-- Glow effect -->
    <filter id="glow">
      <feGaussianBlur stdDeviation="2" result="coloredBlur"/>
      <feMerge>
        <feMergeNode in="coloredBlur"/>
        <feMergeNode in="SourceGraphic"/>
      </feMerge>
    </filter>
  </defs>

  <!-- Background panel -->
  <rect x="10" y="10" width="380" height="280" rx="15" fill="#16213e" stroke="#0f3460" stroke-width="2"/>

  <!-- Title -->
  <text x="200" y="285" text-anchor="middle" fill="#ffffff" font-family="Arial" font-size="14" font-weight="bold">Heat Pump</text>

  <!-- Outdoor section (top) -->
  <g id="outdoor">
    <!-- Cloud/weather icon -->
    <path d="M180 35 Q175 25 185 25 Q190 20 200 25 Q210 20 215 25 Q225 25 220 35 Z" fill="#4dabf7" opacity="0.8"/>
    <!-- Placeholder for outdoor temp - position: left=52%, top=12% -->
    <rect id="outdoor_temp_bg" x="230" y="22" width="50" height="22" rx="4" fill="#0f3460"/>
  </g>

  <!-- Heat Pump Unit (center) -->
  <g id="heat_pump_unit">
    <rect x="100" y="70" width="120" height="100" rx="8" fill="#0f3460" stroke="#4dabf7" stroke-width="2"/>

    <!-- Compressor fan icon -->
    <circle cx="140" cy="120" r="30" fill="none" stroke="#4dabf7" stroke-width="2"/>
    <g id="fan_blades" fill="#4dabf7">
      <ellipse cx="140" cy="105" rx="6" ry="12" transform="rotate(0 140 120)"/>
      <ellipse cx="140" cy="105" rx="6" ry="12" transform="rotate(72 140 120)"/>
      <ellipse cx="140" cy="105" rx="6" ry="12" transform="rotate(144 140 120)"/>
      <ellipse cx="140" cy="105" rx="6" ry="12" transform="rotate(216 140 120)"/>
      <ellipse cx="140" cy="105" rx="6" ry="12" transform="rotate(288 140 120)"/>
    </g>
    <circle cx="140" cy="120" r="5" fill="#4dabf7"/>

    <!-- Secondary fan (smaller) -->
    <circle cx="190" cy="110" r="18" fill="none" stroke="#4dabf7" stroke-width="1.5"/>
    <g fill="#4dabf7" opacity="0.8">
      <ellipse cx="190" cy="100" rx="4" ry="8" transform="rotate(0 190 110)"/>
      <ellipse cx="190" cy="100" rx="4" ry="8" transform="rotate(90 190 110)"/>
      <ellipse cx="190" cy="100" rx="4" ry="8" transform="rotate(180 190 110)"/>
      <ellipse cx="190" cy="100" rx="4" ry="8" transform="rotate(270 190 110)"/>
    </g>
    <circle cx="190" cy="110" r="3" fill="#4dabf7"/>

    <!-- Status labels area -->
    <rect id="pump_status_bg" x="105" y="155" width="35" height="12" rx="2" fill="#0a1628"/>
    <rect id="freq_status_bg" x="145" y="155" width="35" height="12" rx="2" fill="#0a1628"/>
    <rect id="comp_status_bg" x="185" y="155" width="30" height="12" rx="2" fill="#0a1628"/>
  </g>

  <!-- Pressure gauge (top of unit) -->
  <g id="pressure">
    <circle cx="160" cy="60" r="12" fill="#0f3460" stroke="#ffd43b" stroke-width="1.5"/>
    <rect id="pressure_bg" x="175" y="52" width="40" height="16" rx="3" fill="#0a1628"/>
  </g>

  <!-- Flow pipe (hot - going out) -->
  <g id="flow_pipe">
    <path d="M220 100 L280 100 L280 180 L320 180" fill="none" stroke="url(#flowGrad)" stroke-width="8" stroke-linecap="round"/>
    <path d="M220 100 L280 100 L280 180 L320 180" fill="none" stroke="#ff6b6b" stroke-width="4" stroke-linecap="round" opacity="0.5" filter="url(#glow)"/>
    <!-- Flow temp label position -->
    <rect id="flow_temp_bg" x="285" y="85" width="55" height="22" rx="4" fill="#0f3460" stroke="#ff6b6b" stroke-width="1"/>
  </g>

  <!-- Return pipe (cold - coming back) -->
  <g id="return_pipe">
    <path d="M220 140 L260 140 L260 220 L320 220" fill="none" stroke="url(#returnGrad)" stroke-width="8" stroke-linecap="round"/>
    <path d="M220 140 L260 140 L260 220 L320 220" fill="none" stroke="#4dabf7" stroke-width="4" stroke-linecap="round" opacity="0.5" filter="url(#glow)"/>
    <!-- Return temp label position -->
    <rect id="return_temp_bg" x="285" y="205" width="55" height="22" rx="4" fill="#0f3460" stroke="#4dabf7" stroke-width="1"/>
  </g>

  <!-- Buffer tank / Underfloor heating (bottom) -->
  <g id="buffer">
    <path d="M50 200 L50 260 Q50 270 60 270 L150 270 Q160 270 160 260 L160 200" fill="none" stroke="#4dabf7" stroke-width="2"/>
    <!-- Heating waves -->
    <path d="M70 240 Q80 235 90 240 Q100 245 110 240 Q120 235 130 240" fill="none" stroke="#4dabf7" stroke-width="1.5" opacity="0.6"/>
    <path d="M70 250 Q80 245 90 250 Q100 255 110 250 Q120 245 130 250" fill="none" stroke="#4dabf7" stroke-width="1.5" opacity="0.4"/>
    <!-- Floor line -->
    <line x1="40" y1="270" x2="170" y2="270" stroke="#4dabf7" stroke-width="1" opacity="0.5"/>
  </g>

  <!-- Connection from heat pump to buffer -->
  <path d="M100 140 L60 140 L60 200" fill="none" stroke="#4dabf7" stroke-width="6" stroke-linecap="round"/>

  <!-- Status indicator (bottom left of unit) -->
  <g id="status_indicator">
    <circle cx="45" cy="120" r="8" fill="#0f3460" stroke="#51cf66" stroke-width="2"/>
    <circle id="status_dot" cx="45" cy="120" r="4" fill="#51cf66"/>
  </g>

  <!-- Hot water icon (left side) -->
  <g id="hot_water" transform="translate(30, 60)">
    <path d="M10 25 Q5 15 10 10 Q15 5 10 0" fill="none" stroke="#4dabf7" stroke-width="2" stroke-linecap="round"/>
    <ellipse cx="10" cy="30" rx="8" ry="5" fill="#4dabf7" opacity="0.6"/>
  </g>

  <!-- Delta T indicator (between pipes) -->
  <g id="delta_t">
    <text x="270" y="160" fill="#ffd43b" font-family="Arial" font-size="10">ΔT</text>
    <rect id="delta_t_bg" x="280" y="150" width="35" height="16" rx="3" fill="#0a1628"/>
  </g>

</svg>
